<?xml version="1.0" standalone="no"?>
<!DOCTYPE svg PUBLIC "-//W3C//DTD SVG 20010904//EN"
 "http://www.w3.org/TR/2001/REC-SVG-20010904/DTD/svg10.dtd">
<svg version="1.0" xmlns="http://www.w3.org/2000/svg"
 width="700.000000pt" height="700.000000pt" viewBox="0 0 700.000000 700.000000"
 preserveAspectRatio="xMidYMid meet">
<metadata>
Created by potrace 1.11, written by Peter Selinger 2001-2013
</metadata>
<g transform="translate(0.000000,700.000000) scale(0.100000,-0.100000)"
fill="#000000" stroke="none">
<path d="M1097 5419 c-67 -16 -113 -53 -150 -124 -33 -62 -30 -192 6 -261 52
-102 131 -146 287 -159 253 -23 291 -50 387 -275 58 -137 153 -427 178 -545 1
-5 7 -30 14 -55 7 -25 15 -52 16 -60 7 -31 104 -368 155 -540 17 -58 38 -129
46 -158 8 -30 41 -147 73 -260 33 -114 71 -250 85 -302 14 -52 37 -138 51
-190 15 -52 31 -126 36 -164 14 -110 67 -181 164 -222 32 -13 81 -16 277 -16
216 -1 238 -2 233 -17 -14 -33 -13 -133 1 -175 38 -111 156 -189 272 -180 101
7 204 86 236 179 14 43 15 142 1 176 -6 15 20 17 298 17 l305 -1 -9 -31 c-40
-139 43 -293 180 -333 175 -50 346 76 343 252 -1 33 -3 71 -4 85 -3 24 -2 24
82 25 74 1 108 5 194 21 72 13 233 83 274 119 42 36 118 147 165 240 57 112
90 195 182 455 40 113 93 259 118 325 169 446 306 866 452 1384 38 138 -1 263
-104 328 -90 57 -69 56 -561 28 -36 -2 -114 -6 -175 -10 -60 -3 -148 -8 -195
-10 -165 -10 -395 -22 -555 -30 -55 -3 -127 -7 -160 -10 -33 -2 -118 -7 -190
-10 -158 -7 -255 -13 -360 -20 -98 -6 -236 -14 -370 -20 -55 -3 -136 -7 -180
-10 -44 -3 -125 -7 -180 -10 -55 -3 -136 -7 -180 -10 -44 -3 -129 -7 -190 -10
-294 -14 -445 -25 -473 -36 -16 -6 -24 -5 -27 4 -29 91 -55 159 -95 242 -125
259 -273 338 -685 369 -156 12 -233 14 -268 5z m4313 -999 c0 -27 -168 -559
-183 -577 -5 -7 -7 -13 -4 -13 3 0 0 -15 -8 -32 -7 -18 -36 -114 -65 -213
-125 -435 -184 -604 -258 -750 -76 -148 -145 -204 -277 -224 -86 -13 -469 -4
-610 14 -159 21 -406 24 -875 11 -383 -11 -370 -12 -370 8 0 8 -23 97 -51 198
-28 101 -62 223 -75 272 -13 48 -27 92 -30 97 -6 11 14 15 156 34 63 9 126 17
140 20 41 6 171 24 220 30 25 3 72 10 105 15 33 5 80 12 105 15 25 3 74 9 110
15 95 14 129 19 185 26 28 3 61 8 75 10 39 7 76 12 200 29 191 25 233 35 274
63 73 50 105 146 81 247 -16 67 -36 105 -86 155 -79 80 -167 100 -324 75 -44
-7 -100 -15 -125 -18 -25 -3 -78 -11 -118 -16 -40 -6 -91 -13 -115 -16 -23 -3
-51 -7 -62 -9 -11 -2 -45 -7 -75 -11 -30 -3 -66 -8 -80 -10 -14 -2 -45 -7 -70
-10 -25 -3 -88 -12 -140 -20 -52 -8 -115 -16 -140 -20 -25 -3 -56 -8 -70 -10
-26 -4 -75 -11 -145 -19 -22 -3 -87 -12 -144 -21 -57 -8 -105 -14 -106 -13 -2
2 -22 68 -45 148 -23 80 -53 183 -67 230 -38 128 -39 136 -11 136 12 1 84 4
158 8 74 4 165 9 202 11 60 3 160 8 388 20 41 2 122 7 180 10 180 9 282 15
370 20 47 3 132 7 190 10 116 6 248 13 355 20 39 2 126 7 195 10 69 3 152 7
185 9 33 2 123 7 200 11 77 4 163 8 190 10 28 2 116 6 195 10 80 4 146 8 147
9 7 5 123 2 123 -4z"/>
</g>
</svg>
